<svg width="1249" height="807" viewBox="0 0 1249 807" fill="none" xmlns="http://www.w3.org/2000/svg">
<g opacity="0.6">
<g opacity="0.1">
<g clip-path="url(#clip0_1213_451)">
<path d="M0 0V862.987" stroke="white" stroke-width="0.654481"/>
<path d="M41.887 0V862.987" stroke="white" stroke-width="0.654481"/>
<path d="M83.7734 0V862.987" stroke="white" stroke-width="0.654481"/>
<path d="M125.66 0V862.987" stroke="white" stroke-width="0.654481"/>
<path d="M167.547 0V862.987" stroke="white" stroke-width="0.654481"/>
<path d="M209.434 0V862.987" stroke="white" stroke-width="0.654481"/>
<path d="M251.321 0V862.987" stroke="white" stroke-width="0.654481"/>
<path d="M293.208 0V862.987" stroke="white" stroke-width="0.654481"/>
<path d="M335.094 0V862.987" stroke="white" stroke-width="0.654481"/>
<path d="M376.981 0V862.987" stroke="white" stroke-width="0.654481"/>
<path d="M418.868 0V862.987" stroke="white" stroke-width="0.654481"/>
<path d="M460.754 0V862.987" stroke="white" stroke-width="0.654481"/>
<path d="M502.641 0V862.987" stroke="white" stroke-width="0.654481"/>
<path d="M544.528 0V862.987" stroke="white" stroke-width="0.654481"/>
<path d="M586.415 0V862.987" stroke="white" stroke-width="0.654481"/>
<path d="M628.302 0V862.987" stroke="white" stroke-width="0.654481"/>
<path d="M670.188 0V862.987" stroke="white" stroke-width="0.654481"/>
<path d="M712.075 0V862.987" stroke="white" stroke-width="0.654481"/>
<path d="M753.962 0V862.987" stroke="white" stroke-width="0.654481"/>
<path d="M795.849 0V862.987" stroke="white" stroke-width="0.654481"/>
<path d="M837.735 0V862.987" stroke="white" stroke-width="0.654481"/>
<path d="M879.622 0V862.987" stroke="white" stroke-width="0.654481"/>
<path d="M921.509 0V862.987" stroke="white" stroke-width="0.654481"/>
<path d="M963.396 0V862.987" stroke="white" stroke-width="0.654481"/>
<path d="M1005.28 0V862.987" stroke="white" stroke-width="0.654481"/>
<path d="M1047.17 0V862.987" stroke="white" stroke-width="0.654481"/>
<path d="M1089.06 0V862.987" stroke="white" stroke-width="0.654481"/>
<path d="M1130.94 0V862.987" stroke="white" stroke-width="0.654481"/>
<path d="M1172.83 0V862.987" stroke="white" stroke-width="0.654481"/>
<path d="M1214.72 0V862.987" stroke="white" stroke-width="0.654481"/>
</g>
<g clip-path="url(#clip1_1213_451)">
<path d="M0 0L1248.18 0" stroke="white" stroke-width="0.654481"/>
<path d="M0 41.8867L1248.18 41.8867" stroke="white" stroke-width="0.654481"/>
<path d="M0 83.7736L1248.18 83.7736" stroke="white" stroke-width="0.654481"/>
<path d="M0 125.66L1248.18 125.66" stroke="white" stroke-width="0.654481"/>
<path d="M0 167.547L1248.18 167.547" stroke="white" stroke-width="0.654481"/>
<path d="M0 209.434L1248.18 209.434" stroke="white" stroke-width="0.654481"/>
<path d="M0 251.321L1248.18 251.321" stroke="white" stroke-width="0.654481"/>
<path d="M0 293.207L1248.18 293.207" stroke="white" stroke-width="0.654481"/>
<path d="M0 335.094L1248.18 335.094" stroke="white" stroke-width="0.654481"/>
<path d="M0 376.981L1248.18 376.981" stroke="white" stroke-width="0.654481"/>
<path d="M0 418.868L1248.18 418.868" stroke="white" stroke-width="0.654481"/>
<path d="M0 460.754L1248.18 460.754" stroke="white" stroke-width="0.654481"/>
<path d="M0 502.641L1248.18 502.641" stroke="white" stroke-width="0.654481"/>
<path d="M0 544.528L1248.18 544.528" stroke="white" stroke-width="0.654481"/>
<path d="M0 586.415L1248.18 586.415" stroke="white" stroke-width="0.654481"/>
<path d="M0 628.301L1248.18 628.301" stroke="white" stroke-width="0.654481"/>
<path d="M0 670.188L1248.18 670.188" stroke="white" stroke-width="0.654481"/>
<path d="M0 712.075L1248.18 712.075" stroke="white" stroke-width="0.654481"/>
<path d="M0 753.962L1248.18 753.962" stroke="white" stroke-width="0.654481"/>
<path d="M0 795.849L1248.18 795.849" stroke="white" stroke-width="0.654481"/>
</g>
</g>
</g>
<defs>
<clipPath id="clip0_1213_451">
<rect width="1248.18" height="806.841" fill="white"/>
</clipPath>
<clipPath id="clip1_1213_451">
<rect width="1248.18" height="806.841" fill="white"/>
</clipPath>
</defs>
</svg>
