<svg width="375" height="457" viewBox="0 0 375 457" fill="none" xmlns="http://www.w3.org/2000/svg">
<g opacity="0.7">
<circle cx="316.617" cy="280.363" r="0.699952" fill="white" fill-opacity="0.5"/>
<circle cx="72.297" cy="205.941" r="0.866106" fill="white" fill-opacity="0.3"/>
<circle cx="5.76944" cy="229.393" r="0.639683" fill="white" fill-opacity="0.6"/>
<circle cx="198.132" cy="418.796" r="0.610874" fill="white" fill-opacity="0.4"/>
<circle cx="148.496" cy="340.745" r="0.700234" fill="white" fill-opacity="0.4"/>
<circle cx="343.985" cy="302.996" r="0.837128" fill="white" fill-opacity="0.5"/>
<circle cx="1.60868" cy="168.994" r="0.621616" fill="white" fill-opacity="0.6"/>
<circle cx="17.7882" cy="384.67" r="0.818832" fill="white" fill-opacity="0.4"/>
<circle cx="7.0901" cy="433.169" r="0.776743" fill="white" fill-opacity="0.3"/>
<circle cx="133.096" cy="100.393" r="0.690477" fill="white" fill-opacity="0.6"/>
<circle cx="12.4038" cy="50.739" r="0.76211" fill="white" fill-opacity="0.5"/>
<circle cx="180.993" cy="292.733" r="0.637879" fill="white" fill-opacity="0.5"/>
<circle cx="259.685" cy="269.013" r="0.596974" fill="white" fill-opacity="0.3"/>
<circle cx="228.999" cy="385.729" r="0.694188" fill="white" fill-opacity="0.5"/>
<circle cx="75.6809" cy="424.803" r="0.697257" fill="white" fill-opacity="0.3"/>
<circle cx="5.18193" cy="430.669" r="0.643604" fill="white" fill-opacity="0.5"/>
<circle cx="69.168" cy="43.5704" r="0.69691" fill="white" fill-opacity="0.5"/>
<circle cx="30.1799" cy="381.67" r="0.778728" fill="white" fill-opacity="0.3"/>
<circle cx="236.885" cy="334.416" r="0.882725" fill="white" fill-opacity="0.4"/>
<circle cx="262.168" cy="102.191" r="0.711451" fill="white" fill-opacity="0.6"/>
<circle cx="126.6" cy="396.397" r="0.706451" fill="white" fill-opacity="0.4"/>
<circle cx="4.82309" cy="249.757" r="0.876195" fill="white" fill-opacity="0.5"/>
<circle cx="371.245" cy="419.644" r="0.866262" fill="white" fill-opacity="0.6"/>
<circle cx="232.049" cy="440.874" r="0.784851" fill="white" fill-opacity="0.6"/>
<circle cx="313.122" cy="393.487" r="0.756572" fill="white" fill-opacity="0.3"/>
<circle cx="122.443" cy="115.196" r="0.693902" fill="white" fill-opacity="0.3"/>
<circle cx="372.827" cy="63.672" r="0.671636" fill="white" fill-opacity="0.5"/>
<circle cx="1.12291" cy="28.8032" r="0.729233" fill="white" fill-opacity="0.4"/>
<circle cx="227.811" cy="96.2495" r="0.689881" fill="white" fill-opacity="0.5"/>
<circle cx="132.578" cy="152.562" r="0.765212" fill="white" fill-opacity="0.4"/>
<circle cx="111.963" cy="391.825" r="0.869681" fill="white" fill-opacity="0.6"/>
<circle cx="134.212" cy="449.591" r="0.622984" fill="white" fill-opacity="0.4"/>
<circle cx="150.859" cy="444.336" r="0.695627" fill="white" fill-opacity="0.5"/>
<circle cx="205.936" cy="78.5181" r="0.718168" fill="white" fill-opacity="0.6"/>
<circle cx="47.4151" cy="358.651" r="0.84679" fill="white" fill-opacity="0.4"/>
<circle cx="111.953" cy="435.62" r="0.858873" fill="white" fill-opacity="0.4"/>
<circle cx="75.6115" cy="314.034" r="0.627863" fill="white" fill-opacity="0.4"/>
<circle cx="77.4745" cy="325.37" r="0.715796" fill="white" fill-opacity="0.3"/>
<circle cx="335.534" cy="402.285" r="0.674169" fill="white" fill-opacity="0.5"/>
<circle cx="301.379" cy="254.469" r="0.852779" fill="white" fill-opacity="0.6"/>
<circle cx="158.522" cy="320.579" r="0.661517" fill="white" fill-opacity="0.3"/>
<circle cx="42.6912" cy="349.783" r="0.859218" fill="white" fill-opacity="0.6"/>
<circle cx="186.971" cy="228.267" r="0.696622" fill="white" fill-opacity="0.3"/>
<circle cx="6.32405" cy="422.931" r="0.602129" fill="white" fill-opacity="0.6"/>
<circle cx="90.4784" cy="402.306" r="0.695275" fill="white" fill-opacity="0.5"/>
<circle cx="354.043" cy="117.11" r="0.831583" fill="white" fill-opacity="0.4"/>
<circle cx="29.6135" cy="183.384" r="0.80469" fill="white" fill-opacity="0.5"/>
<circle cx="50.9692" cy="235.523" r="0.848888" fill="white" fill-opacity="0.4"/>
<circle cx="230.884" cy="329.601" r="0.803339" fill="white" fill-opacity="0.3"/>
<circle cx="35.466" cy="8.68301" r="0.735984" fill="white" fill-opacity="0.4"/>
<circle cx="358.754" cy="191.673" r="0.806592" fill="white" fill-opacity="0.4"/>
<circle cx="77.5631" cy="88.0759" r="0.804401" fill="white" fill-opacity="0.4"/>
<circle cx="307.897" cy="250.924" r="0.859109" fill="white" fill-opacity="0.5"/>
<circle cx="353.292" cy="26.9694" r="0.671462" fill="white" fill-opacity="0.6"/>
<circle cx="16.0543" cy="40.1817" r="0.859953" fill="white" fill-opacity="0.6"/>
<circle cx="109.965" cy="271.432" r="0.647362" fill="white" fill-opacity="0.3"/>
<circle cx="242.772" cy="57.9322" r="0.85128" fill="white" fill-opacity="0.6"/>
<circle cx="120.095" cy="265.578" r="0.713183" fill="white" fill-opacity="0.5"/>
<circle cx="270.557" cy="223.647" r="0.813803" fill="white" fill-opacity="0.3"/>
<circle cx="228.498" cy="392.332" r="0.785658" fill="white" fill-opacity="0.4"/>
<circle cx="348.076" cy="38.33" r="0.784446" fill="white" fill-opacity="0.3"/>
<circle cx="285.221" cy="75.5186" r="0.678364" fill="white" fill-opacity="0.4"/>
<circle cx="129.655" cy="216.532" r="0.802016" fill="white" fill-opacity="0.4"/>
<circle cx="55.6198" cy="211.757" r="0.763236" fill="white" fill-opacity="0.4"/>
<circle cx="272.369" cy="377.004" r="0.849438" fill="white" fill-opacity="0.5"/>
<circle cx="304.715" cy="385.672" r="0.636609" fill="white" fill-opacity="0.5"/>
<circle cx="244.373" cy="84.9881" r="0.676482" fill="white" fill-opacity="0.6"/>
<circle cx="160.284" cy="16.2909" r="0.648472" fill="white" fill-opacity="0.4"/>
<circle cx="247.356" cy="250.764" r="0.698949" fill="white" fill-opacity="0.6"/>
<circle cx="225.008" cy="313.068" r="0.846621" fill="white" fill-opacity="0.6"/>
<circle cx="7.61861" cy="219.402" r="0.711873" fill="white" fill-opacity="0.5"/>
<circle cx="325.601" cy="63.2131" r="0.804688" fill="white" fill-opacity="0.5"/>
<circle cx="119.592" cy="124.185" r="0.803196" fill="white" fill-opacity="0.5"/>
<circle cx="155.784" cy="57.3719" r="0.883131" fill="white" fill-opacity="0.5"/>
<circle cx="171.61" cy="100.43" r="0.727048" fill="white" fill-opacity="0.6"/>
<circle cx="113.102" cy="253.848" r="0.82322" fill="white" fill-opacity="0.4"/>
<circle cx="102.969" cy="57.2436" r="0.754837" fill="white" fill-opacity="0.5"/>
<circle cx="55.1328" cy="455.757" r="0.868386" fill="white" fill-opacity="0.5"/>
<circle cx="135.627" cy="424.959" r="0.853602" fill="white" fill-opacity="0.6"/>
<circle cx="163.256" cy="338.337" r="0.660223" fill="white" fill-opacity="0.5"/>
<circle cx="26.463" cy="101.501" r="0.614002" fill="white" fill-opacity="0.4"/>
<circle cx="196.444" cy="266.746" r="0.69723" fill="white" fill-opacity="0.6"/>
<circle cx="219.622" cy="411.278" r="0.78747" fill="white" fill-opacity="0.3"/>
<circle cx="138.371" cy="448.424" r="0.639587" fill="white" fill-opacity="0.4"/>
<circle cx="180.561" cy="31.2402" r="0.798039" fill="white" fill-opacity="0.6"/>
<circle cx="38.9863" cy="0.956793" r="0.705573" fill="white" fill-opacity="0.3"/>
<circle cx="96.5512" cy="59.7056" r="0.848304" fill="white" fill-opacity="0.5"/>
<circle cx="326.017" cy="410.526" r="0.628061" fill="white" fill-opacity="0.6"/>
<circle cx="196.951" cy="260.741" r="0.613189" fill="white" fill-opacity="0.3"/>
<circle cx="96.4488" cy="313.56" r="0.745889" fill="white" fill-opacity="0.4"/>
<circle cx="53.8999" cy="304.162" r="0.819658" fill="white" fill-opacity="0.6"/>
<circle cx="288.733" cy="57.7188" r="0.637861" fill="white" fill-opacity="0.5"/>
<circle cx="344.967" cy="343.048" r="0.634724" fill="white" fill-opacity="0.6"/>
<circle cx="179.299" cy="64.9042" r="0.719579" fill="white" fill-opacity="0.5"/>
<circle cx="353.834" cy="440.12" r="0.622914" fill="white" fill-opacity="0.4"/>
<circle cx="251.413" cy="299.22" r="0.613337" fill="white" fill-opacity="0.4"/>
<circle cx="268.103" cy="442.001" r="0.72802" fill="white" fill-opacity="0.4"/>
<circle cx="266.43" cy="137.828" r="0.830232" fill="white" fill-opacity="0.4"/>
<circle cx="336.085" cy="1.47601" r="0.632627" fill="white" fill-opacity="0.5"/>
<circle cx="57.9969" cy="75.0218" r="0.773981" fill="white" fill-opacity="0.3"/>
<circle cx="77.3734" cy="9.15354" r="0.614725" fill="white" fill-opacity="0.3"/>
<circle cx="193.41" cy="402.825" r="0.622524" fill="white" fill-opacity="0.6"/>
<circle cx="120.202" cy="76.2526" r="0.820446" fill="white" fill-opacity="0.5"/>
<circle cx="179.217" cy="330.62" r="0.638211" fill="white" fill-opacity="0.5"/>
<circle cx="196.505" cy="321.268" r="0.758062" fill="white" fill-opacity="0.4"/>
<circle cx="124.12" cy="5.58114" r="0.593954" fill="white" fill-opacity="0.6"/>
<circle cx="52.076" cy="109.946" r="0.771508" fill="white" fill-opacity="0.3"/>
<circle cx="245.023" cy="161.412" r="0.734636" fill="white" fill-opacity="0.5"/>
<circle cx="214.834" cy="334.863" r="0.737588" fill="white" fill-opacity="0.4"/>
<circle cx="125.993" cy="101.579" r="0.692114" fill="white" fill-opacity="0.5"/>
</g>
</svg>
