<svg width="24" height="24" viewBox="0 0 24 24" fill="none" xmlns="http://www.w3.org/2000/svg">
<g clip-path="url(#clip0_901_472)">
<path fill-rule="evenodd" clip-rule="evenodd" d="M18 10.875C18 11.4963 17.4963 12 16.875 12C16.2537 12 15.75 11.4963 15.75 10.875C15.75 10.2537 16.2537 9.75 16.875 9.75C17.4963 9.75 18 10.2537 18 10.875V10.875ZM14.25 6H10.5C10.0858 6 9.75 6.33579 9.75 6.75C9.75 7.16421 10.0858 7.5 10.5 7.5H14.25C14.6642 7.5 15 7.16421 15 6.75C15 6.33579 14.6642 6 14.25 6V6ZM23.25 10.5V13.5C23.25 14.7426 22.2426 15.75 21 15.75H20.7787L19.2591 20.0044C19.0459 20.6015 18.4803 21.0001 17.8463 21H16.6537C16.0197 21.0001 15.4541 20.6015 15.2409 20.0044L15.0609 19.5H9.68906L9.50906 20.0044C9.29587 20.6015 8.73028 21.0001 8.09625 21H6.90375C6.26972 21.0001 5.70413 20.6015 5.49094 20.0044L4.3125 16.7081C3.19142 15.4393 2.48945 13.8553 2.3025 12.1725C1.8092 12.4316 1.50017 12.9428 1.5 13.5C1.5 13.9142 1.16421 14.25 0.75 14.25C0.335786 14.25 0 13.9142 0 13.5C0.00235788 12.1238 0.940727 10.9257 2.27625 10.5938C2.62366 6.3081 6.20029 3.00546 10.5 3H20.25C20.6642 3 21 3.33579 21 3.75C21 4.16421 20.6642 4.5 20.25 4.5H18.2447C19.4894 5.37328 20.4683 6.57378 21.0731 7.96875C21.1134 8.0625 21.1528 8.15625 21.1903 8.25C22.3581 8.34912 23.2542 9.32804 23.25 10.5V10.5ZM21.75 10.5C21.75 10.0858 21.4142 9.75 21 9.75H20.6569C20.329 9.75035 20.039 9.53773 19.9406 9.225C19.0587 6.41055 16.4494 4.49632 13.5 4.5H10.5C7.82339 4.49986 5.39955 6.08128 4.32143 8.53115C3.24331 10.981 3.71461 13.8365 5.52281 15.81C5.59048 15.8836 5.64276 15.97 5.67656 16.0641L6.90375 19.5H8.09625L8.45438 18.4978C8.56091 18.1994 8.84347 18.0002 9.16031 18H15.5897C15.9065 18.0002 16.1891 18.1994 16.2956 18.4978L16.6537 19.5H17.8463L19.5441 14.7478C19.6506 14.4494 19.9332 14.2502 20.25 14.25H21C21.4142 14.25 21.75 13.9142 21.75 13.5V10.5Z" fill="#4F7096"/>
</g>
<defs>
<clipPath id="clip0_901_472">
<rect width="24" height="24" fill="white"/>
</clipPath>
</defs>
</svg>
