<?xml version="1.0" encoding="UTF-8"?>
<svg id="Layer_2" data-name="Layer 2" xmlns="http://www.w3.org/2000/svg" viewBox="0 0 245.46 327.28">
  <defs>
    <style>
      .cls-1 {
        fill: #fff;
      }
    </style>
  </defs>
  <g id="Layer_1-2" data-name="Layer 1">
    <path class="cls-1" d="M245.46,16.32v49.19c0,9.01-7.31,16.31-16.32,16.31H98.14c-9.01,0-16.32,7.31-16.32,16.32v49.18c0,9.02,7.31,16.32,16.32,16.32h49.18c9.01,0,16.32,7.31,16.32,16.32v49.18c0,9.01-7.31,16.32-16.32,16.32h-49.18c-9.01,0-16.32,7.3-16.32,16.32v49.18c0,9.01-7.3,16.32-16.32,16.32H16.32c-9.01,0-16.32-7.31-16.32-16.32v-49.18c0-9.02,7.31-16.32,16.32-16.32h49.18c9.02,0,16.32-7.31,16.32-16.32v-49.18c0-9.01-7.3-16.32-16.32-16.32H16.32c-9.01,0-16.32-7.3-16.32-16.32v-49.18c0-9.01,7.31-16.32,16.32-16.32h49.18c9.02,0,16.32-7.3,16.32-16.31V16.32c0-9.01,7.31-16.32,16.32-16.32h131c9.01,0,16.32,7.31,16.32,16.32Z"/>
  </g>
</svg>