<svg width="25" height="32" viewBox="0 0 25 32" fill="none" xmlns="http://www.w3.org/2000/svg">
<g clip-path="url(#clip0_901_478)">
<path fill-rule="evenodd" clip-rule="evenodd" d="M21.9502 10H19.7002V9.25C19.7002 8.42157 19.0286 7.75 18.2002 7.75H6.2002C5.37177 7.75 4.7002 8.42157 4.7002 9.25V10H2.4502C1.62177 10 0.950195 10.6716 0.950195 11.5V13C0.950195 15.0711 2.62913 16.75 4.7002 16.75H5.04238C5.94537 19.6116 8.46472 21.6614 11.4502 21.9634V24.25H9.2002C8.78598 24.25 8.4502 24.5858 8.4502 25C8.4502 25.4142 8.78598 25.75 9.2002 25.75H15.2002C15.6144 25.75 15.9502 25.4142 15.9502 25C15.9502 24.5858 15.6144 24.25 15.2002 24.25H12.9502V21.9606C15.9446 21.6578 18.4289 19.5569 19.3327 16.75H19.7002C21.7713 16.75 23.4502 15.0711 23.4502 13V11.5C23.4502 10.6716 22.7786 10 21.9502 10V10ZM4.7002 15.25C3.45755 15.25 2.4502 14.2426 2.4502 13V11.5H4.7002V14.5C4.7002 14.75 4.71238 15 4.73676 15.25H4.7002ZM18.2002 14.4156C18.2002 17.7456 15.5293 20.4756 12.2461 20.5H12.2002C8.88649 20.5 6.2002 17.8137 6.2002 14.5V9.25H18.2002V14.4156ZM21.9502 13C21.9502 14.2426 20.9428 15.25 19.7002 15.25H19.6533C19.6841 14.9729 19.6997 14.6944 19.7002 14.4156V11.5H21.9502V13Z" fill="#4F7096"/>
</g>
<defs>
<clipPath id="clip0_901_478">
<rect width="24" height="24" fill="white" transform="translate(0.200195 4)"/>
</clipPath>
</defs>
</svg>
